<svg width="1024" height="1024" viewBox="0 0 1024 1024" fill="none" xmlns="http://www.w3.org/2000/svg">
<path d="M344.21 417.622C346.059 415.818 349.674 411.254 351.75 409.017C359.736 400.115 369.87 395.991 381.388 393.673C387.689 392.405 403.245 390.725 405.874 384.27C404.974 379.649 398.018 380.935 394.267 379.575C391.187 378.459 387.618 376.211 385.574 373.665C376.056 361.81 368.095 348.908 359.341 336.394C352.147 325.758 343.775 314.793 337.198 303.859C327.046 286.982 347.714 266.781 359.385 257.122C371.662 246.961 403.542 228.153 416.684 245.952C423.178 254.747 429.534 264.397 435.836 273.389C445.767 288.342 457.46 302.389 466.405 317.849C468.151 320.876 466.635 330.837 466.237 334.673C467.865 338.217 473.2 345.501 475.812 348.413C478.944 347.573 483.006 347.042 486.279 346.525C488.779 343.512 490.635 340.266 493.518 337.121C502.335 327.505 510.31 325.507 522.8 324.858C535.855 310.269 546.37 309.282 564.27 306.912C574.33 289.979 587.605 288.043 606.155 287.19C606.365 286.726 606.575 286.263 606.79 285.802C613.845 270.7 625.01 265.806 640.215 273.808C657.875 265.672 666.25 274.448 672.415 290.25C676.755 291.711 685.81 292.165 691.79 294.124C705.38 298.576 708.69 303.399 715.135 315.227C729.6 315.346 740.02 316.225 747.195 330.401C764.76 334.377 768.595 337.738 775.595 354.31C779.36 354.019 783.145 354.352 786.805 355.294C799.61 358.566 805.315 366.546 811.665 377.318C838.93 388.874 831.69 393.192 832.6 418.397C841.27 451.517 817.785 459.973 792.93 472.803L752.59 493.629C747.88 496.081 740.415 499.728 736.335 502.715C727.635 506.935 718.61 510.755 710.085 515.08C679.155 531.145 648.31 547.365 617.55 563.75L521.145 614.25C519.835 614.95 511.445 619.085 510.91 619.695C493.787 626.89 474.446 637.88 457.727 646.5L361.779 695.92C353.026 700.47 344.298 705.07 335.595 709.715C319.211 718.48 303.359 727.98 284.071 723.015C269.777 719.33 254.334 705.325 242.665 696.15C231.038 687.02 219.335 677.99 207.557 669.06L150.947 625.45C141.548 618.19 131.75 611.31 122.713 603.62C108.095 591.185 105.797 577.665 109.944 559.935C108.202 551.905 107.85 545.86 112.602 538.795C117.341 531.755 115.238 525.26 120.485 517.92C127.944 507.485 136.821 508.105 147.891 505.905C159.711 489.92 169.072 485.333 189.368 487.689C193.131 488.125 198.949 480.137 201.434 477.401C209.215 468.835 221.462 467.681 232.385 467.903C241.117 468.081 243.355 459.189 248.904 454.092C255.314 447.373 266.632 443.071 275.893 442.629C288.188 442.043 288.64 441.436 297.324 433.013C310.574 420.16 326.436 418.157 344.21 417.622Z" fill="#445665"/>
<path d="M832.6 418.397C841.27 451.517 817.785 459.973 792.93 472.803L752.59 493.629C747.88 496.081 740.415 499.728 736.335 502.715C727.635 506.935 718.61 510.755 710.085 515.08C679.155 531.145 648.31 547.365 617.55 563.75L521.145 614.25C519.835 614.95 511.445 619.085 510.91 619.695C493.787 626.89 474.446 637.88 457.727 646.5L361.779 695.92C353.026 700.47 344.298 705.07 335.595 709.715C319.211 718.48 303.359 727.98 284.071 723.015C269.777 719.33 254.334 705.325 242.665 696.15C231.038 687.02 219.335 677.99 207.557 669.06L150.947 625.45C141.548 618.19 131.75 611.31 122.713 603.62C108.095 591.185 105.797 577.665 109.944 559.935L112.88 565.425C113.501 569.745 114.737 580.045 117.273 583.39C126.892 596.09 142.999 606.435 155.621 615.8L192.044 643.095C207.135 654.36 222.369 665.435 237.742 676.315C247.222 683.135 262.316 694.13 272.216 700.18C276.423 702.805 280.984 704.815 285.762 706.145C304.617 711.44 320.157 705.165 337.16 697.16C355.987 688.3 374.02 677.945 392.491 668.42L540.49 590.28L736.14 487.979C759.185 475.801 782.455 464.034 805.305 451.404C813.26 447.007 817.85 441.115 820.235 432.427C823.625 427.423 827.415 427.334 832.6 418.397Z" fill="#A5ADB3"/>
<path d="M789.035 442.578C804.355 442.895 808.335 442.85 820.235 432.427C817.85 441.115 813.26 447.007 805.305 451.404C782.455 464.034 759.185 475.801 736.14 487.979L540.49 590.28L392.491 668.42C374.02 677.945 355.987 688.3 337.16 697.16C320.157 705.165 304.617 711.44 285.762 706.145C280.984 704.815 276.423 702.805 272.216 700.18C262.316 694.13 247.222 683.135 237.742 676.315C222.369 665.435 207.136 654.36 192.045 643.095L155.621 615.8C142.999 606.435 126.892 596.09 117.274 583.39C114.737 580.045 113.501 569.745 112.88 565.425C120.093 574.85 126.051 576.45 136.9 579.84C143.795 593.91 148.758 600.16 165.754 598.675C172.184 615.545 183.275 624.5 201.55 626.11C205.449 643.275 215.9 653.85 233.95 654.525C241.258 668.565 250.902 675.9 267.603 672.315C279.945 693.515 297.08 695.15 319.246 692.085C322.843 691.585 327.363 694.91 333.577 692.77C343.406 689.385 350.616 684.155 355.683 674.925C374.937 677.86 387.425 670.69 397.087 654.415C399.069 654.235 401.048 654.03 403.025 653.8C422.642 651.37 427.524 643.595 438.542 629.62C442.014 628.73 447.624 628.24 451.533 627.305C467.791 623.415 474.537 618.015 484.488 605.625C496.583 605.41 505.76 600.97 512.68 590.97C529.46 589.48 537.545 583 545.665 568.885C562.095 569.105 572.03 566.68 581.355 552.335C596.46 554.61 602.815 551.475 612.56 540.01C629.83 540.29 636.68 533.125 643.905 518.7C657.265 517.805 671.09 514.555 680.675 504.71C686.755 498.472 687.965 495.7 697.26 494.483C706.84 493.227 712.305 490.431 719.22 483.649C734.44 483.666 743.545 479.554 749.67 464.767C768.715 467.03 781.66 460.704 789.035 442.578Z" fill="#83919D"/>
<path d="M491.879 352.719C497.403 344.673 503.935 333.228 514.125 332.875C526.705 332.439 526.37 331.851 535.8 323.117C538.04 321.044 543.215 318.593 546.17 317.609C552.015 315.043 563.255 316.628 566.77 313.994C573.995 307.995 574.445 303.263 583.425 298.494C590.875 294.536 608.725 299.697 611.995 293.079C615.885 285.201 621.27 272.514 633.45 279.136C635.88 280.455 638.385 283.051 641.775 281.914C648.25 279.533 648.985 276.203 656.515 279.526C663.655 282.675 663.16 294.541 668.785 296.974C678.115 301.01 687.08 298.423 697.17 304.127C706.225 309.244 705.315 317.672 710.35 321.499C714.46 324.621 727.515 321.257 734.595 325.786C740.025 329.262 739.715 334.599 742.555 336.421C749.24 340.705 756.17 338.093 762.69 345.455C766.39 349.635 766.83 358.738 770.13 360.572C776.15 363.92 784.13 361 791.595 365.099C801.26 370.41 800.555 376.949 806.675 383.485C809.295 386.278 815.715 385.827 821.085 390.093C823.935 393.018 825.57 395.886 825.55 400.056C825.535 402.891 824.81 405.73 824.675 408.566C824.325 416.003 825.575 417.114 819.49 422.774C810.03 431.564 806.015 435.253 792.51 435.005C790.015 434.96 787.575 434.959 785.29 436.104C778.7 439.4 779.92 458.425 756.705 457.341C753.35 457.185 747.27 455.566 744.745 457.864C742.88 459.563 742.225 462.141 741.345 464.426C737.73 473.837 729.515 475.744 720.2 475.543C718.925 475.514 717.645 475.476 716.37 475.429C702.92 489.72 700.73 483.86 685.37 490.207C679.355 492.692 670.715 505.955 662.06 507.655C655.72 510.2 642.775 510.21 640.4 512.02C632.25 518.235 633.735 531.265 618.395 532.005C614.08 532.21 609.515 531.21 606.4 534.84C601.825 540.395 599.325 544.71 591.535 545.235C587.705 545.495 578.965 542.605 577.06 545.155C571.06 553.33 565.78 561.075 554.505 561.03C550.295 561.015 541.135 560.71 539.115 564.435C530.83 579.74 526.4 582.095 508.15 583.61C498.221 598.86 497.393 595.33 483.193 598.215C477.803 599.31 471.482 611.4 461.643 615.825C458.132 617.415 454.468 618.64 450.708 619.485C447.418 620.21 436.567 621.43 434.41 623.47C427.016 630.46 425.392 636.69 416.026 642.4C408.55 646.955 393.277 644.52 389.81 651.26C381.418 667.58 369.286 669.58 352.771 665.84C351.789 665.61 350.423 667.065 349.933 667.81C345.328 677.425 334.639 691.135 322.623 683.315C321.948 682.88 321.281 682.43 320.622 681.97C310.955 686.28 301.557 687.93 291.409 683.99C283.344 680.855 278.705 675.695 274.458 668.315C273.573 666.775 272.705 664.775 271.27 663.685C270.116 662.805 258.626 666.15 253.456 664.41C242.301 660.65 244.716 652.315 238.392 647.98C232.666 644.055 219.102 649.835 211.925 633.395C210.337 629.755 209.85 620.38 206.487 618.855C204.092 617.765 200.692 617.795 198.095 617.485C187.475 616.21 179.913 611.07 175.474 601.21C174.397 598.82 172.731 591.45 170.428 590.54C163.473 587.785 154.532 598.195 146.324 581.575C144.952 578.8 143.869 575.915 142.07 573.375C137.544 571.315 132.911 570.71 128.455 568.515C118.816 563.76 111.498 553.47 118.27 543.19C119.726 541.64 121.993 539.625 123.586 538.115C123.185 525.805 125.199 517.115 139.035 514.95C147.341 513.645 151.502 515.13 156.285 507.535C165.707 492.574 177.7 494.249 193.422 495.327C201.261 491.522 203.86 482.341 214.701 477.437C223.607 473.409 237.026 477.297 241.513 473.714C249.304 467.495 252.062 458.205 263.262 453.047C273.96 448.121 280.678 450.557 291.129 448.128C295.329 446.307 299.76 441.056 303.004 438.024C311.174 430.385 320.374 426.752 331.382 425.516C334.901 425.121 345.436 426.361 347.823 424.579C354.51 419.586 358.349 409.732 366.818 406.285C386.445 397.817 392.177 404.052 411.092 391.168C414.995 396.26 418.787 402.13 422.398 407.492L426.883 413.828L431.383 420.425C432.046 421.129 434.034 423.881 434.73 424.794C429.953 432.859 427.554 444.255 427.526 453.537C431.638 457.409 456.182 470.348 462.066 472.863C469.91 469.661 534.24 436.052 538.335 432.07L538.255 431.386C536.025 412.337 530.725 388.159 506.115 391.83L498.111 380.474L493.665 374.032C489.303 368.144 483.967 360.967 480.03 354.85C483.543 354.34 488.641 353.762 491.879 352.719Z" fill="#FEFEFE"/>
<path d="M539.025 360.546C548.825 364.03 559.205 371.294 568.12 376.991C584.125 387.367 599.98 397.969 615.685 408.794C625.48 415.535 635.85 422.419 645.08 429.806C650.24 433.939 654.485 446.088 656.99 452.472C626.155 468.524 595.5 484.935 565.045 501.705L454.316 561.36C452.279 555.59 449.987 550.605 447.464 545.05C438.675 529.855 424.612 521.59 410.712 511.295C388.452 494.855 365.884 478.835 343.021 463.245C348.114 461.1 353.606 458.12 358.638 455.68L387.697 441.695C400.119 435.696 419.942 426.882 431.383 420.424C432.046 421.128 434.034 423.881 434.73 424.793C429.953 432.859 427.554 444.254 427.526 453.537C431.638 457.409 456.182 470.347 462.066 472.862C469.91 469.66 534.24 436.051 538.335 432.069L538.255 431.386C536.025 412.337 530.725 388.159 506.115 391.829L498.111 380.474C500.26 378.682 524.59 367.471 528.48 365.595C531.765 363.451 535.415 362.151 539.025 360.546Z" fill="#D0D3D4"/>
<path d="M539.025 360.546C548.825 364.03 559.205 371.294 568.12 376.991C584.125 387.367 599.98 397.969 615.685 408.794C625.48 415.535 635.85 422.419 645.08 429.806C650.24 433.939 654.485 446.088 656.99 452.472C626.155 468.524 595.5 484.935 565.045 501.705L454.316 561.36C452.279 555.59 449.987 550.605 447.464 545.05C454.578 541.92 468.861 533.525 476.508 529.47L551.08 489.363L604.895 460.875C614.285 455.95 630.95 447.741 639.145 441.616C630.77 435.364 620.975 428.96 612.24 422.973C597.885 412.98 583.45 403.1 568.94 393.336C556.745 385.081 540.245 372.717 528.48 365.595C531.765 363.451 535.415 362.151 539.025 360.546Z" fill="#A5ADB3"/>
<path d="M280.99 483.478C289.947 486.174 304.602 497.827 312.685 503.63C325.866 513.015 338.952 522.53 351.942 532.175L377.875 551.55C397.47 566.245 397.051 564.155 406.103 586.945C400.133 590.87 382.611 599.705 375.412 603.585L345.626 619.485C339.182 622.91 330.339 627.9 323.641 630.18C319.006 631.81 314.054 632.335 309.181 631.71C307.904 631.365 306.634 631.005 305.368 630.625C301.71 629.515 298.193 627.985 294.889 626.065C277.595 615.79 256.434 600.685 239.338 589.445C225.252 580.245 211.231 570.94 197.276 561.54C190.081 556.74 182.844 552.02 175.733 547.095C171.898 544.44 169.299 540.235 171.685 535.665C172.163 534.75 176.653 532.19 177.827 531.54C188.419 526.305 199.153 521.33 209.824 516.25L269.42 487.871C272.947 485.928 277.156 484.643 280.99 483.478Z" fill="#FEFEFE"/>
<path d="M280.99 483.478C289.947 486.174 304.602 497.827 312.685 503.63C325.866 513.015 338.952 522.53 351.942 532.175L377.875 551.55C397.47 566.245 397.051 564.155 406.103 586.945C400.133 590.87 382.611 599.705 375.412 603.585L345.626 619.485C339.182 622.91 330.339 627.9 323.641 630.18C319.006 631.81 314.054 632.335 309.181 631.71C318.755 613.47 328.239 609.115 345.536 599.255C359.216 591.46 375.563 584.22 388.555 575.75L294.991 506.695C286.413 500.435 278.118 493.994 269.42 487.871C272.947 485.928 277.156 484.643 280.99 483.478Z" fill="#D0D3D4"/>
<path d="M821.085 390.093C823.935 393.018 825.57 395.886 825.55 400.056C825.535 402.891 824.81 405.73 824.675 408.566C824.325 416.003 825.575 417.113 819.49 422.774C810.03 431.564 806.015 435.253 792.51 435.005C790.015 434.96 787.575 434.958 785.29 436.103C778.7 439.4 779.92 458.425 756.705 457.341C753.35 457.185 747.27 455.565 744.745 457.863C742.88 459.563 742.225 462.14 741.345 464.426C737.73 473.837 729.515 475.744 720.2 475.543C718.925 475.514 717.645 475.476 716.37 475.429C702.92 489.72 700.73 483.86 685.37 490.207C679.355 492.692 670.715 505.955 662.06 507.655C655.72 510.2 642.775 510.21 640.4 512.02C632.25 518.235 633.735 531.265 618.395 532.005C614.08 532.21 609.515 531.21 606.4 534.84C601.825 540.395 599.325 544.71 591.535 545.235C587.705 545.495 578.965 542.605 577.06 545.155C571.06 553.33 565.78 561.075 554.505 561.03C550.295 561.015 541.135 560.71 539.115 564.435C530.83 579.74 526.4 582.095 508.15 583.61C498.221 598.86 497.393 595.33 483.193 598.215C477.803 599.31 471.482 611.4 461.643 615.825C458.132 617.415 454.468 618.64 450.708 619.485C447.418 620.21 436.567 621.43 434.41 623.47C427.016 630.46 425.392 636.69 416.026 642.4C408.55 646.955 393.277 644.52 389.81 651.26C381.418 667.58 369.286 669.58 352.771 665.84C351.789 665.61 350.423 667.065 349.933 667.81C345.328 677.425 334.639 691.135 322.623 683.315C321.948 682.88 321.281 682.43 320.622 681.97C310.955 686.28 301.557 687.93 291.409 683.99C283.344 680.855 278.705 675.695 274.458 668.315C273.573 666.775 272.705 664.775 271.27 663.685C270.116 662.805 258.626 666.15 253.456 664.41C242.301 660.65 244.716 652.315 238.392 647.98C232.666 644.055 219.102 649.835 211.925 633.395C210.337 629.755 209.85 620.38 206.487 618.855C204.092 617.765 200.692 617.795 198.095 617.485C187.475 616.21 179.913 611.07 175.474 601.21C174.397 598.82 172.731 591.45 170.428 590.54C163.473 587.785 154.532 598.195 146.324 581.575C144.952 578.8 143.869 575.915 142.07 573.375C137.544 571.315 132.911 570.71 128.455 568.515C118.816 563.76 111.498 553.47 118.27 543.19C124.087 555.625 133.89 559.23 146.762 560.58C149.304 565.325 150.772 568.4 154.035 572.28C162.493 582.33 170.886 578.065 178.605 581.615C180.416 582.45 181.927 593.45 187.728 598.2C198.506 607.015 204.251 604.085 216.009 603.705C214.861 613.435 214.953 625.5 225.282 631.105C232.195 634.86 238.683 630.485 245.383 628.3C245.367 634.255 245.099 639.38 248.29 644.64C256.156 657.605 271.01 645.43 275.987 646.575C277.931 649.16 278.653 656.025 281.154 659.295C291.826 673.26 301.373 678.6 316.879 668.945C335.275 677.655 339.761 667.205 347.679 653.215C349.844 650.255 356.095 652.225 358.857 652.815C375.347 656.31 383.044 644.98 389.725 632.45C390.868 630.305 401.07 631.865 404.169 631.36C411.851 630.115 419.059 624.97 423.753 618.795C425.064 617.135 429.206 609.63 431.052 609.235C445.738 606.1 461.019 605.035 471.246 592.32C473.388 589.66 475.712 586.14 478.168 583.165C493.573 584.12 497.083 584.01 504.53 569.36C517.325 568.39 526.34 567.02 533.61 554.785C534.85 552.695 536.53 549.675 538.88 548.915C547.72 546.06 553.155 550.495 562.46 544.545C567.825 541.115 569.695 533.405 573.55 531.34C576.325 529.85 584.35 532.995 589.76 531.755C599.205 529.59 600.085 520.055 602.745 519.15C608.97 517.025 612.575 521.975 621.945 516.755C628.915 512.87 631.5 500.96 634.62 499.992C644.37 496.967 652.05 500.615 662.92 494.348C671.395 489.463 672.07 481.358 678.025 477.591C681.2 475.584 693.545 476.976 699.46 473.95C704.94 471.147 707.855 463.749 710.235 462.726C714.505 460.888 721.47 464.546 727.945 460.921C735.865 456.485 737.51 449.399 740.075 441.392C744.495 442.188 748.48 443.715 753.045 443.899C774.63 444.769 772.97 427.251 779.58 424.034C785.07 421.36 794.385 424.889 801.625 421.789C803.365 421.044 805.03 419.825 805.685 417.975C806.825 414.762 805.585 411.753 804.29 408.831C817.52 406.584 820.915 403.804 821.085 390.093Z" fill="#D0D3D4"/>
<path d="M268.033 479.504C267.786 478.673 267.732 478.108 267.595 477.252C269.365 471.964 310.989 453.972 318.704 451.544C320.333 451.032 325.217 452.564 327.124 453.165C329.002 454.302 333.711 457.312 335.471 458.105C337.997 459.805 340.513 461.518 343.021 463.245C365.884 478.835 388.452 494.855 410.712 511.295C424.612 521.59 438.675 529.855 447.464 545.05C449.987 550.605 452.279 555.59 454.316 561.36L456.777 568.72C457.834 572.145 459.029 574.66 458.01 578.075C455.265 581.31 417.743 600.805 413.188 601.755C409.72 600.61 409.498 597.485 408.47 594.245C407.826 592.715 406.656 588.69 406.103 586.945C397.051 564.155 397.47 566.245 377.875 551.55L351.942 532.175C338.952 522.53 325.866 513.015 312.685 503.63C304.602 497.826 289.947 486.174 280.99 483.478C275.433 481.38 272.784 483.724 268.033 479.504Z" fill="#445665"/>
<path d="M319.487 459.073C327.414 461.136 339.366 470.105 346.5 474.965C358.75 483.269 370.863 491.777 382.832 500.48C393.335 507.965 403.746 515.58 414.064 523.32C424.367 531.01 433.794 536.52 440.163 547.945C444.22 555.46 448.191 566.23 450.546 574.59C439.514 580.31 426.495 586.67 415.883 592.835C412.616 582.275 410.159 576.035 405.424 565.99C399.76 556.855 384.782 547.14 375.871 540.42C360.417 528.7 344.787 517.21 328.988 505.96C317.765 497.93 294.81 480.438 283.525 475.667C291.515 471.571 311.55 461.763 319.487 459.073Z" fill="#A5ADB3"/>
<path d="M440.163 547.945C444.22 555.46 448.191 566.23 450.546 574.59C439.514 580.31 426.495 586.67 415.883 592.835C412.616 582.275 410.159 576.035 405.424 565.99C416.767 560.54 428.737 553.74 440.163 547.945Z" fill="#83919D"/>
<path d="M525.235 358.543C523.69 357.113 521.265 353.46 523.83 351.97C537.87 343.803 553.205 337.318 567.855 330.242C573.725 327.405 576.94 328.134 582.725 330.471C585.675 332.238 588.47 333.933 591.515 335.533C624.165 355.188 658.22 376.335 688.755 399.443C691.715 401.683 695.405 407.852 697.27 411.053L703.92 426.51L706.205 433.651C707.35 437.099 708.705 439.793 707.535 443.204C706.365 444.591 705.13 445.591 703.595 446.553C699.62 449.044 668.045 466.253 665.145 466.552C664.185 466.651 663.64 466.521 662.765 466.185C660.765 464.375 660.265 462.173 659.445 459.565C658.66 457.19 657.84 454.825 656.99 452.472C654.485 446.088 650.24 433.939 645.08 429.806C635.85 422.419 625.48 415.535 615.685 408.794C599.98 397.969 584.125 387.367 568.12 376.991C559.205 371.294 548.825 364.03 539.025 360.546C534.185 358.629 530.295 358.432 525.235 358.543Z" fill="#445665"/>
<path d="M538.94 352.567C545.91 348.995 570.59 335.338 577.2 336.76C586.19 338.695 670.36 394.125 681.125 402.969C684.545 405.779 687.055 409.171 689.505 412.816C693.675 420.405 697.295 431.589 699.89 439.878C688.985 446.15 677.55 451.775 666.46 457.756C663.455 447.676 661.17 440.48 656.205 430.923C650.575 422.607 637.88 414.802 629.455 408.952C618.95 401.585 608.355 394.349 597.675 387.247C582.805 377.33 554.875 356.873 538.94 352.567Z" fill="#A5ADB3"/>
<path d="M689.505 412.815C693.675 420.404 697.295 431.589 699.89 439.878C688.985 446.15 677.55 451.775 666.46 457.756C663.455 447.676 661.17 440.48 656.205 430.922C659.615 429.759 686.775 414.895 689.505 412.815Z" fill="#83919D"/>
<path d="M591.515 335.533C597.955 331.456 633.41 313.64 640.15 315.053C642.6 315.567 645.275 317.098 647.455 318.317C670.54 331.224 692.935 345.847 715.61 359.5L743.705 376.48C748.485 379.38 755.875 383.55 759.945 386.89C756.6 387.053 746.805 387.041 744.365 387.867C731.035 392.374 709.425 403.837 697.27 411.053C695.405 407.852 691.715 401.683 688.755 399.443C658.22 376.335 624.165 355.188 591.515 335.533Z" fill="#FEFEFE"/>
<path d="M582.725 330.471C593.07 326.184 607.52 319.041 617.59 313.904C641.075 301.922 645.605 307.632 666.31 320.496C675.65 326.279 685.03 332.008 694.44 337.682L736.045 362.786C745.45 368.397 754.945 373.867 763.825 379.992C769.235 383.722 771.42 391.862 768.67 397.291C765.53 403.489 749.89 410.359 744.02 413.51C731.46 420.31 718.855 427.024 706.205 433.651L703.92 426.51L697.27 411.053C709.425 403.837 731.035 392.374 744.365 387.867C746.805 387.041 756.6 387.053 759.945 386.89C755.875 383.55 748.485 379.38 743.705 376.48L715.61 359.5C692.935 345.847 670.54 331.224 647.455 318.317C645.275 317.098 642.6 315.567 640.15 315.053C633.41 313.64 597.955 331.456 591.515 335.533C588.47 333.933 585.675 332.237 582.725 330.471Z" fill="#83919D"/>
<path d="M759.945 386.891C761.935 388.627 763.625 392.679 761.13 394.488C744.125 406.833 721.22 414.918 703.92 426.51L697.27 411.053C709.425 403.837 731.035 392.374 744.365 387.867C746.805 387.042 756.6 387.054 759.945 386.891Z" fill="#D0D3D4"/>
<path d="M268.033 479.504C272.784 483.724 275.433 481.38 280.99 483.478C277.156 484.643 272.947 485.928 269.42 487.871L209.824 516.25C199.153 521.33 188.42 526.305 177.828 531.54C176.654 532.19 172.164 534.75 171.685 535.665C169.299 540.235 171.899 544.44 175.734 547.095C182.845 552.02 190.082 556.74 197.276 561.54C211.231 570.94 225.252 580.245 239.338 589.445C256.434 600.685 277.596 615.79 294.889 626.065C298.193 627.985 301.71 629.515 305.368 630.625C306.634 631.005 307.904 631.365 309.181 631.71C314.054 632.335 319.006 631.81 323.641 630.18C330.339 627.9 339.182 622.91 345.626 619.485L375.412 603.585C382.611 599.705 400.133 590.87 406.103 586.945C406.656 588.69 407.826 592.715 408.47 594.245C393.659 603.03 377.131 611.305 361.884 619.58C349.632 625.88 338.147 633.105 325.22 637.935C305.748 645.215 289.924 632.265 274.618 622.17L243.054 601.315L197.688 571.175C188.858 565.315 173.567 556.355 165.958 548.63C161.763 544.37 162.653 532.345 168.447 528.365C175.004 523.865 182.741 520.59 190.29 516.985L242.754 491.905C249.14 488.879 262.793 483.229 268.033 479.504Z" fill="#83919D"/>
<path d="M656.99 452.472C657.84 454.825 658.66 457.19 659.445 459.565L526.65 530.915L480.088 556.02C472.986 559.87 463.515 564.665 456.777 568.72L454.316 561.36L565.045 501.705C595.5 484.935 626.155 468.524 656.99 452.472Z" fill="#83919D"/>
<path d="M426.883 413.828L431.383 420.424C419.942 426.882 400.119 435.696 387.697 441.695L358.638 455.68C353.606 458.12 348.114 461.1 343.021 463.245C340.513 461.518 337.997 459.805 335.471 458.105C341.967 454.171 357.072 447.379 364.445 443.806L426.883 413.828Z" fill="#FEFEFE"/>
<path d="M422.398 407.491L426.883 413.828L364.445 443.806C357.072 447.379 341.967 454.171 335.471 458.105C333.711 457.312 329.002 454.302 327.124 453.165C349.771 442.489 372.351 431.67 394.862 420.711C401.731 417.403 416.506 411.075 422.398 407.491Z" fill="#83919D"/>
<path d="M525.235 358.543C530.295 358.432 534.185 358.629 539.025 360.546C535.415 362.151 531.765 363.451 528.48 365.595C524.59 367.471 500.26 378.682 498.111 380.474L493.665 374.031C503.675 368.297 514.725 363.384 525.235 358.543Z" fill="#83919D"/>
<path d="M349.697 277.586C353.477 273.266 357.977 268.041 362.598 263.96C370.799 256.506 398.568 239.343 408.823 248.532C413.305 252.548 422.586 266.966 426.768 273.09C436.513 287.359 447.745 301.839 456.997 316.354C457.451 316.906 459.514 320.426 460.016 321.247L460.003 328.447C440.467 327.317 400.85 353.633 399.194 372.719C396.888 372.139 394.833 371.428 392.585 370.68C388.922 366.543 377.125 348.826 373.553 343.676C367.341 334.762 361.184 325.81 355.081 316.821C343.747 300.348 335.045 295.382 349.697 277.586Z" fill="#D0D3D4"/>
<path d="M349.697 277.586C352.62 284.194 366.832 303.829 371.98 311.108C380.718 323.463 390.48 338.611 399.534 350.464C413.694 336.248 425.191 327.23 444.417 319.82C447.935 318.464 454.584 317.389 456.997 316.353C457.451 316.906 459.514 320.426 460.016 321.246L460.003 328.447C440.467 327.317 400.85 353.633 399.194 372.719C396.888 372.139 394.833 371.428 392.585 370.68C388.922 366.543 377.125 348.825 373.553 343.676C367.341 334.761 361.184 325.809 355.081 316.82C343.747 300.348 335.045 295.382 349.697 277.586Z" fill="#A5ADB3"/>
<path d="M393.52 258.974C393.811 258.959 394.102 258.939 394.393 258.928C396.055 258.868 397.38 259.07 398.592 260.319C402.084 263.918 418.907 287.168 418.147 291.154C417.847 292.729 416.607 293.23 415.411 294.075C413.991 294.05 412.602 293.796 411.599 292.772C407.624 288.709 391.446 266.537 391.157 262.549C391.656 260.603 392.016 260.452 393.52 258.974Z" fill="#FEFEFE"/>
<path d="M422.87 300.434C429.904 300.278 436.431 309.226 430.043 314.409C424.826 314.705 421.556 309.743 420.755 305.042C420.408 303.004 421.631 301.833 422.87 300.434Z" fill="#FEFEFE"/>
<path d="M417.711 357.28C426.94 348.481 443.338 337.286 456.24 335.475C459.758 339.278 463.366 344.75 466.44 349.077C478.504 366.112 490.498 383.55 502.655 400.469C506.065 405.212 513.665 415.396 507.03 419.934C500.275 424.552 487.435 431.289 479.729 433.937C472.874 423.131 470.616 419.356 457.971 415.194C454.348 414.906 453.059 415.057 449.639 416.299C446.882 417.375 443.338 419.092 440.572 420.335L422.086 393.414C418.354 388.073 409.286 375.69 406.802 370.35C408.66 367.168 409.92 365.601 412.33 362.927L417.711 357.28Z" fill="#D0D3D4"/>
<path d="M412.33 362.927C423.124 379.312 437.91 400.673 449.639 416.299C446.882 417.375 443.338 419.092 440.572 420.335L422.086 393.414C418.354 388.073 409.286 375.69 406.802 370.35C408.66 367.168 409.92 365.601 412.33 362.927Z" fill="#A5ADB3"/>
<path d="M417.711 357.28C421.714 363.81 427.489 371.626 431.948 378.002L457.971 415.194C454.348 414.906 453.059 415.057 449.639 416.299C437.91 400.673 423.124 379.312 412.33 362.927L417.711 357.28Z" fill="#83919D"/>
<path d="M510.545 398.32C527.085 401.639 527.335 414.854 529.9 428.754C508.945 438.704 486.2 452.253 464.957 462.849L461.825 464.54C453.44 460.004 443.131 454.754 435.225 449.701C436.53 442.84 437.247 430.65 443.909 427.251C447.278 425.682 450.906 423.904 454.35 422.585C460.755 423.712 464.671 425.421 468.535 430.911C471.027 434.451 472.816 440.653 477.491 441.547C483.434 442.484 489.824 437.808 494.955 435.281C499.751 432.919 504.625 430.887 509.015 427.957C519.215 421.145 518.925 410.286 512.4 400.891C511.795 400.024 511.175 399.167 510.545 398.32Z" fill="#D0D3D4"/>
<path d="M435.225 449.701C436.53 442.84 437.247 430.65 443.909 427.251C445.34 427.707 445.873 427.674 447.337 427.887C460.208 429.759 463.895 444.399 464.486 455.404C464.609 457.706 464.267 460.925 464.957 462.849L461.825 464.54C453.44 460.004 443.131 454.754 435.225 449.701Z" fill="#A5ADB3"/>
<path d="M736.335 502.715C736.26 504.465 736.065 505.12 736.94 506.64C741.795 508.92 749.435 510.02 754.525 512.305C762.255 515.78 769.87 519.65 777.55 523.25L834.805 550.145C848.16 556.37 861.76 562.175 875.02 568.455C889.58 575.345 904.005 580.97 909.77 597.585C914.81 612.105 907.385 623.355 899.595 634.535L897.245 635.26L897.015 635.83L897.62 636.22C906.1 641.84 914.54 652.565 916.18 662.845C917.645 672.045 916.025 675.88 915.865 684.365C916.085 692.8 913.765 705.38 907.405 710.35C895.3 719.81 874.91 731.145 861.405 739.22L788.85 782.925L743.68 810.135C720.59 824.2 698.55 841.385 670.48 828.61C660.53 824.085 651.135 819.155 641.41 814.185L593.9 790.005L545.455 765.66C533.395 759.585 516.675 752.07 506.165 743.64C503.275 741.325 500.405 734.835 499.157 731.13C494.297 719.83 490.494 706.1 498.426 695.065C499.497 693.57 502 691.605 503.465 690.38C499.089 683.485 496.224 675.74 495.063 667.66C493.208 654.39 495.681 641.31 503.4 630.22C505.8 626.775 508.595 624.135 511.17 620.705L510.91 619.695C511.445 619.085 519.835 614.95 521.145 614.25L617.55 563.75C648.31 547.365 679.155 531.145 710.085 515.08C718.61 510.755 727.635 506.935 736.335 502.715Z" fill="#445665"/>
<path d="M499.157 731.13C500.915 731.68 502.73 734.38 504.295 735.75C514.345 744.54 527.81 749.71 539.83 755.615L580.25 775.75C607.38 789.225 634.255 803.28 661.475 816.555C675.11 823.76 693.515 826.15 707.985 819.33C722.385 812.55 738.105 801.99 751.81 793.375L808.745 758.19C830.765 744.785 852.69 731.23 874.52 717.52C882.11 712.755 896.32 704.665 902.93 699.535C908.07 695.525 912.18 690.345 914.915 684.425L915.2 683.81L915.865 684.365C916.085 692.8 913.765 705.38 907.405 710.35C895.3 719.81 874.91 731.145 861.405 739.22L788.85 782.925L743.68 810.135C720.59 824.2 698.55 841.385 670.48 828.61C660.53 824.085 651.135 819.155 641.41 814.185L593.9 790.005L545.455 765.66C533.395 759.585 516.675 752.07 506.165 743.64C503.275 741.325 500.405 734.835 499.157 731.13Z" fill="#83919D"/>
<path d="M593.95 740.76C582.435 735.745 567.17 727.215 555.605 721.41C533.77 710.185 511.505 698.09 503.985 672.96C497.332 650.735 506.615 630.265 527.31 620.34C534.4 616.935 542.05 612.695 548.995 609.045L606.635 578.665L689.625 534.875C699.15 529.89 718.2 518.905 727.445 516.16C732.68 514.555 738.27 514.54 743.51 516.11C748.995 517.725 759.885 523.18 765.52 525.85L801.025 542.55L852.2 566.19C862.255 570.79 875.885 576.705 885.43 581.895C893.125 585.86 899.63 591.135 902.365 599.75C904.48 606.445 903.755 613.71 900.365 619.86C896.2 627.46 872.95 640.045 864.895 644.995L810.28 678.475L753.31 713.575L725.26 731.03C716.77 736.28 707.12 743.125 697.645 745.7C695.595 746.275 693.49 746.6 691.365 746.665C678.185 749.31 662.135 739.155 650.665 733.275L610.77 712.94L561.145 687.89C553.31 683.95 545.405 680.105 537.605 676.11C534.98 674.765 533.92 672.745 532.545 670.25C532.29 666.065 532.505 662.765 535.555 659.6C541.045 654.085 547.375 656.385 553.38 659.265C592.005 677.8 630.63 696.35 669.345 714.7C685.465 722.34 675.14 724.995 677.62 733.115L680.945 734.815C687.54 731.39 687.53 723.28 684.725 717.18C683.235 713.945 681.395 712.65 678.4 710.96C669.58 705.99 660.255 701.93 651.12 697.565L603.875 674.935L568.38 657.94C562.235 655 554.665 650.89 548.355 648.825C534.765 644.6 520.445 659.655 525.465 672.61C529.62 683.34 548.885 690.41 558.935 695.455L605.13 718.735C617.205 724.77 629.245 730.895 641.24 737.095C660.22 746.955 682.725 761.68 704.88 751.72C718.24 745.715 732.26 735.515 745.005 727.825L842.575 667.805C855.945 659.61 873.865 647.83 887.35 640.67C891.51 642.38 894.34 644.025 898.095 646.43C900.335 647.89 901.995 649.605 903.48 651.845C908.315 658.995 910.47 667.695 908.58 676.115C906.27 686.41 902.715 690.9 894.045 696.33C881.12 704.43 868.25 712.42 855.32 720.415C831.355 735.385 807.31 750.23 783.185 764.94L737.51 793.155C727.15 799.55 706.82 813.49 695.35 814.755C677.575 819.22 657.7 806.13 642.175 798.315L587.975 771.12L541.135 747.74C531.765 743.08 520.785 738.195 512.305 732.405C505.555 727.795 498.744 715.83 500.655 707.63C501.575 703.675 503.175 698.725 507.3 697.215C509.22 697.465 508.635 697.415 510.345 699.135C525.655 715.455 540.145 722.205 559.725 732.27L595.78 750.675C613.69 759.685 631.28 768.865 649.51 777.52C659.115 782.08 674.15 781.94 681.745 788.7C686.455 792.895 683.91 797.68 678.43 800.415C678.2 811.635 692.075 806.395 692.115 793.05C686.61 773.87 669.68 778.41 655.205 771.53C634.955 761.91 613.405 751.865 593.95 740.76Z" fill="#FEFEFE"/>
<path d="M695.35 814.755C702.62 806.12 706.695 797.04 703.17 785.595C700.765 777.775 693.965 769.535 686.88 765.52C671 756.515 652.14 753.64 635.41 746.43C607.315 734.88 581.145 722.25 554.37 707.92C538.005 699.11 520.585 690.065 514.52 671.12C509.525 657.465 517.775 639.625 532.135 635.78C546.885 631.835 567.51 643.41 580.535 649.795L609.655 663.97C632.83 675.15 655.85 685.39 678.705 698.065C691.985 705.43 702.3 716.935 694.135 733.805C692.46 737.255 684 737.89 680.945 734.815C687.54 731.39 687.53 723.28 684.725 717.18C683.235 713.945 681.395 712.65 678.4 710.96C669.58 705.99 660.255 701.93 651.12 697.565L603.875 674.935L568.38 657.94C562.235 655 554.665 650.89 548.355 648.825C534.765 644.6 520.445 659.655 525.465 672.61C529.62 683.34 548.885 690.41 558.935 695.455L605.13 718.735C617.205 724.77 629.245 730.895 641.24 737.095C660.22 746.955 682.725 761.68 704.88 751.72C718.24 745.715 732.26 735.515 745.005 727.825L842.575 667.805C855.945 659.61 873.865 647.83 887.35 640.67C891.51 642.38 894.34 644.025 898.095 646.43C900.335 647.89 901.995 649.605 903.48 651.845C908.315 658.995 910.47 667.695 908.58 676.115C906.27 686.41 902.715 690.9 894.045 696.33C881.12 704.43 868.25 712.42 855.32 720.415C831.355 735.385 807.31 750.23 783.185 764.94L737.51 793.155C727.15 799.55 706.82 813.49 695.35 814.755Z" fill="#D0D3D4"/>
<path d="M898.095 646.43C900.335 647.89 901.995 649.605 903.48 651.845C900.81 656.06 841.44 692.25 831.885 698.215L797.28 719.825C792.35 722.895 773.015 736.7 768.165 733.385C766.45 727.795 781.295 720.29 785.515 717.59L813.04 700.09L898.095 646.43Z" fill="#FEFEFE"/>
<path d="M733.755 751.635C735.735 750.925 737.93 751.89 738.74 753.835C739.55 755.78 738.695 758.015 736.795 758.925C735.48 759.555 733.92 759.405 732.745 758.54C731.57 757.675 730.97 756.23 731.18 754.785C731.39 753.34 732.38 752.13 733.755 751.635Z" fill="#FEFEFE"/>
<path d="M750.99 740.8C752.325 740.435 753.75 740.825 754.715 741.81C755.685 742.795 756.04 744.225 755.655 745.55C755.265 746.88 754.19 747.89 752.845 748.2C750.82 748.665 748.795 747.42 748.29 745.41C747.79 743.395 748.985 741.345 750.99 740.8Z" fill="#FEFEFE"/>
<path d="M885.43 581.895C893.125 585.86 899.63 591.135 902.365 599.75C904.48 606.445 903.755 613.71 900.365 619.86C896.2 627.46 872.95 640.045 864.895 644.995L810.28 678.475L753.31 713.575L725.26 731.03C716.77 736.28 707.12 743.125 697.645 745.7C695.595 746.275 693.49 746.6 691.365 746.665C692.305 745.89 692.655 745.58 693.735 744.98C697.875 742.71 701.24 739.25 703.4 735.05C707.585 726.925 705.705 717.765 703.045 709.535C729.305 698.75 765.28 676.435 790.075 661.54L824.56 640.42C838.43 631.89 857.315 620.02 870.075 609.675C873.58 606.885 876.76 603.71 879.555 600.21C884.4 594.105 886.29 589.59 885.43 581.895Z" fill="#D0D3D4"/>
<path d="M510.345 699.135C525.655 715.455 540.145 722.205 559.725 732.27L595.78 750.675C613.69 759.685 631.28 768.865 649.51 777.52C659.115 782.08 674.15 781.94 681.745 788.7C686.455 792.895 683.91 797.68 678.43 800.415C676.855 799.245 656.385 789.96 653.115 788.395C623.86 774.395 594.595 759.105 565.34 745.295C556.945 741.33 548.49 737.49 539.97 733.79C521.62 725.955 506.785 723.31 510.345 699.135Z" fill="#D0D3D4"/>
<path d="M532.545 670.25C532.29 666.065 532.505 662.765 535.555 659.6C541.045 654.085 547.375 656.385 553.38 659.265C592.005 677.8 630.63 696.35 669.345 714.7C685.465 722.34 675.14 724.995 677.62 733.115C671.95 730.85 655.76 721.29 649.065 717.845C624.435 704.93 599.58 692.44 574.525 680.38C567.505 676.98 560.64 673.22 553.475 670.125C545.19 666.545 540.46 665.54 532.545 670.25Z" fill="#D0D3D4"/>
<path d="M593.95 740.76C596.815 740.55 599.33 741.96 601.98 743.065C625.425 752.85 649.44 760.895 673.735 768.24C676.87 769.19 683.045 772.235 685.73 774.175C690.315 777.495 695.285 787.74 692.115 793.05C686.61 773.87 669.68 778.41 655.205 771.53C634.955 761.91 613.405 751.865 593.95 740.76Z" fill="#D0D3D4"/>
<path d="M827.835 594.765C829.08 594.01 830.645 594.025 831.88 594.8C833.115 595.57 833.815 596.975 833.68 598.425C833.55 599.875 832.615 601.13 831.26 601.67C829.39 602.41 827.26 601.595 826.37 599.795C825.475 597.99 826.11 595.805 827.835 594.765Z" fill="#D0D3D4"/>
<path d="M716.235 538.795C718.27 538.365 720.275 539.63 720.775 541.645C721.275 543.665 720.085 545.715 718.09 546.285C716.73 546.675 715.265 546.29 714.275 545.285C713.285 544.28 712.92 542.81 713.33 541.455C713.735 540.105 714.85 539.085 716.235 538.795Z" fill="#D0D3D4"/>
<path d="M753.355 548.38C755.395 547.94 757.415 549.2 757.915 551.225C758.41 553.255 757.205 555.31 755.195 555.865C753.845 556.235 752.395 555.845 751.415 554.84C750.435 553.84 750.075 552.385 750.48 551.04C750.885 549.695 751.985 548.68 753.355 548.38Z" fill="#D0D3D4"/>
<path d="M800.38 618.36C801.695 617.9 803.155 618.185 804.2 619.105C805.24 620.03 805.7 621.45 805.4 622.81C805.095 624.17 804.08 625.255 802.74 625.65C800.75 626.235 798.655 625.13 798.015 623.155C797.375 621.18 798.425 619.055 800.38 618.36Z" fill="#D0D3D4"/>
<path d="M685.38 558.85C686.685 558.41 688.13 558.705 689.155 559.625C690.18 560.545 690.63 561.945 690.335 563.29C690.04 564.635 689.04 565.715 687.72 566.12C685.725 566.73 683.61 565.625 682.97 563.64C682.33 561.65 683.405 559.52 685.38 558.85Z" fill="#D0D3D4"/>
<path d="M576.04 616.405C578.04 615.875 580.1 617.035 580.685 619.02C581.27 621.005 580.165 623.095 578.19 623.73C576.87 624.155 575.425 623.835 574.41 622.885C573.395 621.935 572.98 620.51 573.315 619.165C573.655 617.82 574.695 616.765 576.04 616.405Z" fill="#D0D3D4"/>
<path d="M603.17 623.82C604.945 622.72 607.275 623.265 608.385 625.04C609.49 626.81 608.955 629.145 607.185 630.26C605.41 631.38 603.06 630.84 601.945 629.055C600.835 627.275 601.38 624.925 603.17 623.82Z" fill="#D0D3D4"/>
<path d="M820.45 611.74C821.705 611.175 823.165 611.34 824.26 612.17C825.36 613 825.91 614.365 825.705 615.725C825.5 617.08 824.57 618.22 823.28 618.69C821.38 619.385 819.275 618.45 818.515 616.58C817.755 614.705 818.61 612.57 820.45 611.74Z" fill="#D0D3D4"/>
<path d="M723.315 557.34C724.505 556.695 725.95 556.74 727.095 557.465C728.24 558.185 728.905 559.475 728.83 560.825C728.755 562.175 727.955 563.38 726.735 563.975C724.915 564.86 722.715 564.13 721.785 562.33C720.855 560.53 721.535 558.315 723.315 557.34Z" fill="#D0D3D4"/>
<path d="M735.215 541.245C737.125 540.65 739.16 541.67 739.83 543.55C740.505 545.435 739.57 547.51 737.715 548.255C736.445 548.765 735.005 548.54 733.95 547.67C732.9 546.8 732.41 545.42 732.675 544.08C732.935 542.74 733.91 541.655 735.215 541.245Z" fill="#D0D3D4"/>
<path d="M851.465 589.3C853.38 588.895 855.275 590.08 855.75 591.98C856.22 593.88 855.1 595.815 853.22 596.355C851.94 596.72 850.565 596.355 849.635 595.41C848.7 594.465 848.355 593.085 848.74 591.815C849.12 590.54 850.165 589.58 851.465 589.3Z" fill="#D0D3D4"/>
</svg>
