<svg width="2048" height="2048" viewBox="0 0 2048 2048" fill="none" xmlns="http://www.w3.org/2000/svg">
<path d="M1000.31 172.409C1003.84 171.889 1014.8 171.688 1019.08 171.643C1089.06 171.152 1168.12 187.419 1220.44 236.497C1246.7 261.128 1254.85 288.222 1252.83 322.708C1252.12 334.682 1252.83 349.079 1252.83 361.253L1252.82 506.502V1037.63L1253 1555.32L1252.79 1696.17C1252.79 1716.68 1253.42 1743.12 1251.86 1763.25C1250.66 1778.68 1235.11 1801.02 1223.85 1811.59C1172.74 1859.59 1091.59 1877.26 1023.75 1877.14C959.333 1877.56 880.92 1860.03 831.067 1817.76C814.014 1803.3 796.34 1780.48 795.654 1757.67C794.854 1731.07 795.11 1703.66 795.122 1677.04L795.211 1525.72L795.588 1024.74L795.326 523.839L795.238 379.454C795.129 353.817 794.379 326.658 795.515 301.22C797.7 252.281 844.012 217.985 884.71 199.284C921.693 182.289 959.885 175.27 1000.31 172.409Z" fill="#96A5AF"/>
<path d="M804.06 342.079C812.91 361.101 822.963 370.202 838.417 383.757C900.01 432.293 993.063 445.756 1069.48 436.669C1100.63 433.243 1131.13 425.348 1160.03 413.227L1160.83 412.798C1166.57 409.773 1173.25 407.609 1178.37 404.626C1206.89 387.991 1227.52 372.366 1243.9 343.673L1243.94 1319.35L1243.98 1623.76L1243.99 1709.38C1244.06 1724.04 1245.18 1742.79 1243.83 1757.08C1239.87 1799.15 1193.38 1827.26 1159.91 1842.49C1132.01 1854.21 1102.6 1861.95 1072.55 1865.48C994.189 1874.71 901.859 1862.55 838.473 1812.64C835.1 1809.82 831.864 1806.83 828.778 1803.69C798.245 1772.78 803.716 1751.94 803.868 1711.96L803.948 1626.55L804.06 1330.92V342.079Z" fill="#FDFDFD"/>
<path d="M1243.9 343.673L1243.94 1319.35L1243.98 1623.76L1243.99 1709.38C1244.06 1724.04 1245.18 1742.79 1243.83 1757.08C1239.87 1799.15 1193.38 1827.26 1159.91 1842.49L1160.03 413.227L1160.83 412.798C1166.57 409.773 1173.25 407.609 1178.37 404.626C1206.89 387.991 1227.52 372.366 1243.9 343.673Z" fill="#E4E8EB"/>
<path d="M804.06 342.079C812.91 361.101 822.963 370.202 838.417 383.757C837.126 400.045 838.223 435.331 838.186 452.891L838.148 603.705L838.123 1072.09L838.225 1572.44L838.244 1732.56C838.247 1754.23 837.046 1792.75 838.473 1812.64C835.1 1809.82 831.864 1806.83 828.778 1803.69C798.245 1772.78 803.716 1751.94 803.868 1711.96L803.948 1626.55L804.06 1330.92V342.079Z" fill="#E4E8EB"/>
<path d="M1022.44 180.453C1089.63 181.563 1160.35 194.397 1212.11 240.515C1251.9 275.97 1255.31 327.549 1216.76 365.31C1168 413.084 1093.96 429.035 1027.69 430.232C962.789 429.999 884.705 415.31 837.246 370.918C751.903 291.089 846.607 212.043 928.91 192.665C965.075 184.15 986.043 181.493 1022.44 180.453Z" fill="#FDFDFD"/>
<path d="M1002.56 197.428C1007.94 196.304 1023.68 196.653 1029.93 196.745C1082.83 197.657 1141.25 210.156 1182.56 244.726C1218.33 274.668 1225.8 320.179 1192.69 355.179C1155.79 394.169 1096.61 410.378 1044.75 413.202C986.362 417.284 915.096 404.431 868.457 367.524C831.431 338.225 820.729 293.018 854.298 256.153C891.35 215.462 949.368 201.107 1002.56 197.428Z" fill="#E4E8EB"/>
<path d="M998.021 202.572C1056.86 197.577 1126.13 208.609 1174.6 244.612C1208.66 269.919 1222.46 313.525 1192.38 348.222C1156.27 389.866 1099.58 403.028 1046.76 408.244C989.424 412.636 917.762 400.239 871.676 363.864C838.44 337.629 826.071 296.384 855.762 261.814C890.472 221.4 946.902 207.583 998.021 202.572Z" fill="#FDFDFD"/>
<path d="M1010.37 246.412C1042.29 244.232 1076.29 248.987 1102.77 268.376C1123.62 283.643 1131.72 310.286 1113.73 331.478C1095.2 353.316 1065.55 360.638 1038.23 363.868C1005.73 365.287 973.434 361.844 946.118 342.364C911.888 317.953 919.872 280.707 954.444 262.435C973.461 252.383 988.791 248.487 1010.37 246.412Z" fill="#96A5AF"/>
<path d="M1016.99 253.412C1042.56 250.997 1076.96 258.171 1098.22 273.53C1115.85 286.266 1124.07 308.424 1108.6 326.697C1090.76 347.774 1060.54 354.398 1034.21 356.951C1003.55 357.757 971.743 353.786 946.929 334.06C929.991 320.595 924.639 299.128 940.207 282.174C959.336 261.343 989.931 255.177 1016.99 253.412Z" fill="#E4E8EB"/>
<path d="M1011.54 260.365C1037.88 256.366 1096.07 266.967 1101.98 300.093C1108.08 334.197 1063.4 346.226 1037.48 349.858C1010.38 351.818 982.144 348.87 960.175 331.956C934.639 312.298 944.022 284.609 970.042 271.944C984.433 264.939 995.828 262.181 1011.54 260.365Z" fill="#96A5AF"/>
<path d="M988.159 271.141C1017.98 264.909 1053.74 263.008 1079.76 280.857C1111.12 302.373 1091.85 325.127 1066.13 336.705C1042.36 344.814 1009.12 347.463 985.713 338.248C935.725 318.572 943.447 288.823 988.159 271.141Z" fill="#E4E8EB"/>
<path d="M1066.13 336.705C1042.36 344.814 1009.12 347.463 985.713 338.248C935.725 318.572 943.447 288.823 988.159 271.141C986.257 280.219 990.147 289.996 995.071 297.543C1009.65 319.892 1040.34 334.153 1066.13 336.705Z" fill="#B8BDC2"/>
<path d="M1007.72 218.385C1010.72 217.72 1019.28 217.72 1023.41 217.781C1075.3 218.548 1140.02 232.308 1169.57 279.725C1173.12 285.413 1175.78 300.863 1173.7 307.257C1170.13 306.041 1168.42 290.54 1166.24 285.881C1164.26 281.665 1163.11 279.65 1160.69 275.701C1128.94 232.325 1055.15 219.406 1005 223.65C998.387 224.209 970.184 229.14 966.87 228.245L966.403 226.721L968.221 224.452C979.154 220.844 995.956 219.617 1007.72 218.385Z" fill="#E4E8EB"/>
<path d="M873.017 302.487C873.48 302.661 876.544 304.076 876.579 304.368C878.967 324.372 886.583 337.578 902.006 350.06C935.529 377.189 984.545 388.132 1026.6 387.524C1034.84 387.381 1043.07 386.847 1051.25 385.924C1057.8 385.14 1075.23 380.723 1080.21 382.825L1080.66 385.251C1052.99 395.636 994.468 393.261 966.236 385.79C936.56 377.936 898.577 362.53 881.976 334.656C876.648 325.709 870.367 312.829 873.017 302.487Z" fill="#E4E8EB"/>
</svg>
